<mxfile host="app.diagrams.net" modified="2021-06-03T09:07:01.337Z" agent="5.0 (Macintosh; Intel Mac OS X 10_15_7) AppleWebKit/605.1.15 (KHTML, like Gecko) Version/14.1.1 Safari/605.1.15" etag="VXhHUNth91HhowKqvJxT" version="14.7.3" type="github">
  <diagram name="Page-1" id="0783ab3e-0a74-02c8-0abd-f7b4e66b4bec">
    <mxGraphModel dx="946" dy="645" grid="1" gridSize="10" guides="1" tooltips="1" connect="1" arrows="1" fold="1" page="1" pageScale="1" pageWidth="850" pageHeight="1100" background="none" math="0" shadow="0">
      <root>
        <mxCell id="0" />
        <mxCell id="1" parent="0" />
        <mxCell id="tqe55kgwILjYbgef6qEX-1" style="edgeStyle=orthogonalEdgeStyle;rounded=0;orthogonalLoop=1;jettySize=auto;html=1;exitX=0.5;exitY=1;exitDx=0;exitDy=0;entryX=0.5;entryY=0;entryDx=0;entryDy=0;" edge="1" parent="1" source="tqe55kgwILjYbgef6qEX-2" target="tqe55kgwILjYbgef6qEX-5">
          <mxGeometry relative="1" as="geometry" />
        </mxCell>
        <mxCell id="tqe55kgwILjYbgef6qEX-2" value="" style="ellipse;whiteSpace=wrap;html=1;rounded=0;shadow=0;comic=0;labelBackgroundColor=none;strokeWidth=1;fillColor=#000000;fontFamily=Verdana;fontSize=12;align=center;" vertex="1" parent="1">
          <mxGeometry x="300" y="10" width="40" height="40" as="geometry" />
        </mxCell>
        <mxCell id="tqe55kgwILjYbgef6qEX-3" value="" style="ellipse;whiteSpace=wrap;html=1;rounded=0;shadow=0;comic=0;labelBackgroundColor=none;strokeWidth=1;fillColor=#000000;fontFamily=Verdana;fontSize=12;align=center;" vertex="1" parent="1">
          <mxGeometry x="180" y="290" width="40" height="40" as="geometry" />
        </mxCell>
        <mxCell id="tqe55kgwILjYbgef6qEX-4" style="edgeStyle=orthogonalEdgeStyle;rounded=0;orthogonalLoop=1;jettySize=auto;html=1;exitX=0.5;exitY=1;exitDx=0;exitDy=0;entryX=0.5;entryY=0;entryDx=0;entryDy=0;" edge="1" parent="1" source="tqe55kgwILjYbgef6qEX-5" target="tqe55kgwILjYbgef6qEX-11">
          <mxGeometry relative="1" as="geometry">
            <mxPoint x="320" y="200" as="targetPoint" />
          </mxGeometry>
        </mxCell>
        <mxCell id="tqe55kgwILjYbgef6qEX-5" value="Favori Kitap&amp;nbsp;&lt;br&gt;Listesini Oluştur" style="rounded=1;whiteSpace=wrap;html=1;" vertex="1" parent="1">
          <mxGeometry x="260" y="90" width="120" height="60" as="geometry" />
        </mxCell>
        <mxCell id="tqe55kgwILjYbgef6qEX-8" style="edgeStyle=orthogonalEdgeStyle;rounded=0;orthogonalLoop=1;jettySize=auto;html=1;exitX=1;exitY=0.5;exitDx=0;exitDy=0;entryX=0.5;entryY=0;entryDx=0;entryDy=0;" edge="1" parent="1" source="tqe55kgwILjYbgef6qEX-11" target="tqe55kgwILjYbgef6qEX-15">
          <mxGeometry relative="1" as="geometry" />
        </mxCell>
        <mxCell id="tqe55kgwILjYbgef6qEX-9" value="Evet" style="edgeLabel;html=1;align=center;verticalAlign=middle;resizable=0;points=[];" vertex="1" connectable="0" parent="tqe55kgwILjYbgef6qEX-8">
          <mxGeometry x="-0.0936" relative="1" as="geometry">
            <mxPoint x="-47" y="50" as="offset" />
          </mxGeometry>
        </mxCell>
        <mxCell id="tqe55kgwILjYbgef6qEX-10" value="Hayır" style="edgeStyle=orthogonalEdgeStyle;curved=1;orthogonalLoop=1;jettySize=auto;html=1;exitX=0;exitY=0.5;exitDx=0;exitDy=0;entryX=0.5;entryY=0;entryDx=0;entryDy=0;" edge="1" parent="1" source="tqe55kgwILjYbgef6qEX-11" target="tqe55kgwILjYbgef6qEX-3">
          <mxGeometry x="-0.3758" y="-20" relative="1" as="geometry">
            <mxPoint as="offset" />
          </mxGeometry>
        </mxCell>
        <mxCell id="tqe55kgwILjYbgef6qEX-11" value="İşlem" style="rhombus;whiteSpace=wrap;html=1;" vertex="1" parent="1">
          <mxGeometry x="280" y="210" width="80" height="80" as="geometry" />
        </mxCell>
        <mxCell id="tqe55kgwILjYbgef6qEX-12" style="edgeStyle=orthogonalEdgeStyle;orthogonalLoop=1;jettySize=auto;html=1;exitX=0.25;exitY=1;exitDx=0;exitDy=0;entryX=0.5;entryY=0;entryDx=0;entryDy=0;curved=1;" edge="1" parent="1" source="tqe55kgwILjYbgef6qEX-15" target="tqe55kgwILjYbgef6qEX-17">
          <mxGeometry relative="1" as="geometry" />
        </mxCell>
        <mxCell id="tqe55kgwILjYbgef6qEX-13" style="edgeStyle=orthogonalEdgeStyle;curved=1;orthogonalLoop=1;jettySize=auto;html=1;exitX=0.5;exitY=1;exitDx=0;exitDy=0;entryX=0.5;entryY=0;entryDx=0;entryDy=0;" edge="1" parent="1" source="tqe55kgwILjYbgef6qEX-15" target="tqe55kgwILjYbgef6qEX-19">
          <mxGeometry relative="1" as="geometry" />
        </mxCell>
        <mxCell id="tqe55kgwILjYbgef6qEX-14" style="edgeStyle=orthogonalEdgeStyle;curved=1;orthogonalLoop=1;jettySize=auto;html=1;exitX=0.75;exitY=1;exitDx=0;exitDy=0;entryX=0.5;entryY=0;entryDx=0;entryDy=0;" edge="1" parent="1" source="tqe55kgwILjYbgef6qEX-15" target="tqe55kgwILjYbgef6qEX-21">
          <mxGeometry relative="1" as="geometry" />
        </mxCell>
        <mxCell id="tqe55kgwILjYbgef6qEX-15" value="" style="whiteSpace=wrap;html=1;rounded=0;shadow=0;comic=0;labelBackgroundColor=none;strokeWidth=1;fontFamily=Verdana;fontSize=12;align=center;rotation=0;fillColor=#000000;" vertex="1" parent="1">
          <mxGeometry x="540" y="230" width="147" height="10" as="geometry" />
        </mxCell>
        <mxCell id="tqe55kgwILjYbgef6qEX-16" style="edgeStyle=orthogonalEdgeStyle;curved=1;orthogonalLoop=1;jettySize=auto;html=1;exitX=0.5;exitY=1;exitDx=0;exitDy=0;entryX=0.374;entryY=-0.3;entryDx=0;entryDy=0;entryPerimeter=0;" edge="1" parent="1" source="tqe55kgwILjYbgef6qEX-17" target="tqe55kgwILjYbgef6qEX-23">
          <mxGeometry relative="1" as="geometry">
            <Array as="points">
              <mxPoint x="490" y="360" />
              <mxPoint x="338" y="360" />
            </Array>
          </mxGeometry>
        </mxCell>
        <mxCell id="tqe55kgwILjYbgef6qEX-17" value="Favori Kitap&amp;nbsp;&lt;br&gt;Listesini Düzenle" style="rounded=1;whiteSpace=wrap;html=1;" vertex="1" parent="1">
          <mxGeometry x="430" y="290" width="120" height="40" as="geometry" />
        </mxCell>
        <mxCell id="tqe55kgwILjYbgef6qEX-18" style="edgeStyle=orthogonalEdgeStyle;curved=1;orthogonalLoop=1;jettySize=auto;html=1;exitX=0;exitY=0.5;exitDx=0;exitDy=0;entryX=0.551;entryY=0.1;entryDx=0;entryDy=0;entryPerimeter=0;strokeColor=#000000;" edge="1" parent="1" source="tqe55kgwILjYbgef6qEX-19" target="tqe55kgwILjYbgef6qEX-23">
          <mxGeometry relative="1" as="geometry" />
        </mxCell>
        <mxCell id="tqe55kgwILjYbgef6qEX-19" value="Favori Kitap Listesinden Kitap Çıkart" style="rounded=1;whiteSpace=wrap;html=1;" vertex="1" parent="1">
          <mxGeometry x="553.5" y="370" width="120" height="40" as="geometry" />
        </mxCell>
        <mxCell id="tqe55kgwILjYbgef6qEX-20" style="edgeStyle=orthogonalEdgeStyle;curved=1;orthogonalLoop=1;jettySize=auto;html=1;exitX=0.5;exitY=1;exitDx=0;exitDy=0;entryX=0.932;entryY=-0.2;entryDx=0;entryDy=0;entryPerimeter=0;strokeColor=#000000;" edge="1" parent="1" source="tqe55kgwILjYbgef6qEX-21" target="tqe55kgwILjYbgef6qEX-23">
          <mxGeometry relative="1" as="geometry">
            <Array as="points">
              <mxPoint x="750" y="330" />
              <mxPoint x="750" y="420" />
              <mxPoint x="420" y="420" />
            </Array>
          </mxGeometry>
        </mxCell>
        <mxCell id="tqe55kgwILjYbgef6qEX-21" value="Favori Kitap Listesine Kitap Ekle" style="rounded=1;whiteSpace=wrap;html=1;" vertex="1" parent="1">
          <mxGeometry x="680" y="290" width="120" height="40" as="geometry" />
        </mxCell>
        <mxCell id="tqe55kgwILjYbgef6qEX-22" style="edgeStyle=orthogonalEdgeStyle;curved=1;orthogonalLoop=1;jettySize=auto;html=1;exitX=0.5;exitY=1;exitDx=0;exitDy=0;entryX=0.5;entryY=0;entryDx=0;entryDy=0;" edge="1" parent="1" source="tqe55kgwILjYbgef6qEX-23" target="tqe55kgwILjYbgef6qEX-25">
          <mxGeometry relative="1" as="geometry" />
        </mxCell>
        <mxCell id="tqe55kgwILjYbgef6qEX-23" value="" style="whiteSpace=wrap;html=1;rounded=0;shadow=0;comic=0;labelBackgroundColor=none;strokeWidth=1;fontFamily=Verdana;fontSize=12;align=center;rotation=0;fillColor=#000000;" vertex="1" parent="1">
          <mxGeometry x="283" y="450" width="147" height="10" as="geometry" />
        </mxCell>
        <mxCell id="tqe55kgwILjYbgef6qEX-24" style="edgeStyle=orthogonalEdgeStyle;curved=1;orthogonalLoop=1;jettySize=auto;html=1;exitX=0;exitY=0.5;exitDx=0;exitDy=0;entryX=1;entryY=0.5;entryDx=0;entryDy=0;strokeColor=#000000;" edge="1" parent="1" source="tqe55kgwILjYbgef6qEX-25" target="tqe55kgwILjYbgef6qEX-3">
          <mxGeometry relative="1" as="geometry" />
        </mxCell>
        <mxCell id="tqe55kgwILjYbgef6qEX-25" value="Favori Kitap &lt;br&gt;Listesini Görüntüle" style="rounded=1;whiteSpace=wrap;html=1;" vertex="1" parent="1">
          <mxGeometry x="260" y="520" width="120" height="60" as="geometry" />
        </mxCell>
      </root>
    </mxGraphModel>
  </diagram>
</mxfile>
